<?xml version="1.0" standalone="no"?>
<!DOCTYPE svg PUBLIC "-//W3C//DTD SVG 20010904//EN"
 "http://www.w3.org/TR/2001/REC-SVG-20010904/DTD/svg10.dtd">
<svg version="1.0" xmlns="http://www.w3.org/2000/svg"
 width="200.000000pt" height="200.000000pt" viewBox="0 0 200.000000 200.000000"
 preserveAspectRatio="xMidYMid meet">

<g transform="translate(0.000000,200.000000) scale(0.100000,-0.100000)"
fill="#000000" stroke="none">
<path d="M1094 1931 c-12 -5 -38 -12 -58 -15 -50 -8 -63 -16 -119 -74 -45 -45
-49 -55 -62 -128 -19 -106 -18 -127 4 -141 16 -10 18 -9 17 10 -1 17 5 22 23
22 13 0 29 9 35 19 22 38 41 56 58 56 13 0 18 8 18 31 0 34 50 88 85 90 55 4
112 -5 147 -23 21 -11 45 -18 53 -14 19 7 75 -41 75 -64 0 -10 -7 -26 -17 -35
-15 -16 -15 -19 0 -45 23 -37 22 -40 -10 -38 -74 5 -83 1 -83 -39 0 -21 3 -47
6 -59 6 -24 59 -58 78 -51 15 6 37 98 34 147 -2 43 11 110 25 128 5 7 7 15 4
19 -4 3 -2 12 4 20 8 8 8 17 2 26 -6 6 -13 26 -16 43 -7 37 -54 89 -93 104
-37 15 -184 22 -210 11z m283 -273 c-3 -8 -6 -5 -6 6 -1 11 2 17 5 13 3 -3 4
-12 1 -19z"/>
<path d="M1062 1624 c-34 -14 -43 -34 -15 -34 14 0 13 -3 -5 -16 -29 -20 -28
-32 3 -44 14 -5 25 -14 25 -20 0 -11 61 -13 97 -4 24 7 67 70 57 85 -20 33
-116 53 -162 33z m48 -74 c0 -5 -5 -10 -11 -10 -5 0 -7 5 -4 10 3 6 8 10 11
10 2 0 4 -4 4 -10z"/>
<path d="M809 1548 c-10 -18 -9 -18 10 -8 17 9 22 8 27 -5 3 -8 10 -13 15 -10
13 9 0 33 -22 38 -13 3 -23 -2 -30 -15z"/>
<path d="M838 1499 c-10 -5 -18 -17 -18 -26 0 -11 3 -13 13 -5 6 6 17 10 22
11 6 0 11 7 13 15 4 18 -6 20 -30 5z"/>
<path d="M1144 1424 c10 -25 -4 -41 -30 -36 -28 5 -31 17 -8 26 9 4 14 9 11
12 -7 7 -40 -10 -61 -32 -9 -8 -16 -27 -16 -41 0 -26 0 -26 -21 -7 -16 15 -24
16 -39 6 -16 -10 -20 -8 -25 8 -4 11 -14 20 -23 20 -10 0 -23 10 -31 22 -13
21 -14 21 -27 4 -17 -23 -8 -108 17 -157 10 -20 14 -40 10 -45 -13 -14 -20
-161 -9 -172 6 -6 8 -18 5 -26 -9 -22 -8 -26 1 -27 4 0 12 -10 19 -22 11 -22
12 -21 25 11 8 18 17 29 21 25 13 -12 7 -61 -8 -67 -8 -3 -15 -15 -15 -26 0
-11 -4 -20 -10 -20 -5 0 -10 -4 -10 -10 0 -15 94 -12 174 5 38 8 71 13 73 12
2 -2 -8 -30 -22 -63 -50 -120 -138 -353 -186 -493 -27 -80 -51 -147 -54 -149
-2 -3 -16 3 -29 12 -29 18 -50 21 -40 5 5 -8 1 -8 -14 0 -31 17 -80 13 -100
-7 -10 -10 -27 -22 -37 -26 -17 -6 -17 -9 -5 -17 13 -8 13 -10 0 -19 -11 -7
-11 -10 -2 -10 7 0 11 -4 8 -9 -4 -5 0 -11 6 -14 10 -3 10 -8 2 -16 -9 -9 -20
-6 -49 13 -21 14 -45 26 -55 26 -9 0 -20 3 -24 8 -4 4 -11 7 -14 7 -27 2 -54
21 -76 55 -14 22 -24 40 -20 40 3 0 -6 14 -21 32 -18 22 -25 38 -20 52 4 12 9
32 12 46 3 14 14 35 25 47 16 17 19 29 13 63 -10 62 28 96 54 48 10 -20 11
-20 7 -3 -2 11 -10 34 -17 51 -17 43 -6 66 28 62 20 -2 32 -12 42 -36 10 -23
20 -31 31 -27 10 3 23 -1 30 -10 7 -8 20 -15 30 -15 10 0 23 -7 30 -15 7 -8
16 -15 20 -15 4 0 11 42 15 92 13 185 40 319 61 311 13 -5 19 12 28 77 2 19 7
51 11 70 l7 35 -39 -41 c-44 -45 -107 -86 -170 -108 -22 -8 -67 -28 -100 -44
-33 -16 -77 -35 -99 -42 -82 -26 -94 -53 -160 -345 -26 -113 -38 -160 -73
-280 -20 -67 -51 -206 -51 -226 0 -5 71 -9 170 -9 162 0 173 1 220 25 54 27
100 33 100 12 0 -7 -12 -18 -27 -24 -21 -8 124 -11 554 -12 l583 -1 5 22 c13
58 20 290 15 453 -7 178 -24 282 -54 311 -6 7 -45 24 -86 39 -182 64 -332 163
-376 246 -14 28 -16 22 62 165 12 22 24 56 28 76 6 34 3 41 -28 73 -26 26 -44
35 -68 35 -18 0 -50 4 -71 9 -31 8 -37 7 -33 -5z m-257 -86 c-3 -8 -6 -5 -6 6
-1 11 2 17 5 13 3 -3 4 -12 1 -19z m328 12 c12 -5 -1 -6 -35 -3 -30 3 -57 7
-59 9 -9 8 75 2 94 -6z m-101 -29 c17 -5 51 -15 76 -22 71 -20 72 -31 1 -23
-61 6 -64 6 -59 -14 3 -12 1 -23 -6 -26 -6 -2 -1 -5 11 -5 12 -1 23 -6 25 -12
2 -6 25 -13 51 -16 76 -9 57 -26 -23 -21 -82 6 -120 27 -120 65 0 15 -7 34
-16 44 -30 33 0 48 60 30z m-127 -254 c-13 -29 -40 -32 -45 -5 -2 10 7 19 25
26 15 5 29 8 30 7 2 -1 -3 -14 -10 -28z m-207 -1031 c0 -2 -7 -7 -16 -10 -8
-3 -12 -2 -9 4 6 10 25 14 25 6z"/>
<path d="M872 1145 c0 -16 2 -22 5 -12 2 9 2 23 0 30 -3 6 -5 -1 -5 -18z"/>
<path d="M850 939 c-13 -24 -8 -34 15 -26 16 7 21 47 5 47 -5 0 -14 -9 -20
-21z"/>
<path d="M638 504 c6 -11 20 -28 31 -38 17 -15 21 -16 21 -4 0 14 -20 37 -48
53 -11 6 -12 3 -4 -11z"/>
<path d="M756 352 c-2 -4 -1 -14 5 -22 7 -12 9 -10 9 8 0 23 -5 28 -14 14z"/>
<path d="M780 235 c-8 -9 -8 -15 -2 -15 12 0 26 19 19 26 -2 2 -10 -2 -17 -11z"/>
<path d="M810 220 c0 -5 5 -10 11 -10 5 0 7 5 4 10 -3 6 -8 10 -11 10 -2 0 -4
-4 -4 -10z"/>
</g>
</svg>
